HIERARCHY
ROOT Hips
{
  OFFSET 173.408295 91.952423 -518.280273
  CHANNELS 6 Xposition Yposition Zposition Zrotation Yrotation Xrotation
  JOINT LeftUpLeg
  {
    OFFSET 0.103459 1.857827 10.548504
    CHANNELS 3 Zrotation Yrotation Xrotation
    JOINT LeftLeg
    {
      OFFSET 43.500008 0.000000 0.000004
      CHANNELS 3 Zrotation Yrotation Xrotation
      JOINT LeftFoot
      {
        OFFSET 42.372192 0.000011 0.000000
        CHANNELS 3 Zrotation Yrotation Xrotation
        JOINT LeftToe
        {
          OFFSET 17.299973 -0.000013 -0.000010
          CHANNELS 3 Zrotation Yrotation Xrotation
          End Site
          {
            OFFSET 0.000000 0.000000 0.000000
          }
        }
      }
    }
    JOINT RightUpLeg
    {
      OFFSET 0.103454 1.857830 -10.548500
      CHANNELS 3 Zrotation Yrotation Xrotation
      JOINT RightLeg
      {
        OFFSET 43.500038 -0.000038 0.000004
        CHANNELS 3 Zrotation Yrotation Xrotation
        JOINT RightFoot
        {
          OFFSET 42.372253 0.000019 0.000024
          CHANNELS 3 Zrotation Yrotation Xrotation
          JOINT RightToe
          {
            OFFSET 17.299988 -0.000007 0.000004
            CHANNELS 3 Zrotation Yrotation Xrotation
            End Site
            {
              OFFSET 0.000000 0.000000 0.000000
            }
          }
        }
      }
      JOINT Spine
      {
        OFFSET 6.901963 -2.603744 0.000004
        CHANNELS 3 Zrotation Yrotation Xrotation
        JOINT Spine1
        {
          OFFSET 12.588104 0.000008 -0.000010
          CHANNELS 3 Zrotation Yrotation Xrotation
          JOINT Spine2
          {
            OFFSET 12.343202 -0.000005 0.000010
            CHANNELS 3 Zrotation Yrotation Xrotation
            JOINT Neck
            {
              OFFSET 25.832897 0.000000 0.000001
              CHANNELS 3 Zrotation Yrotation Xrotation
              JOINT Head
              {
                OFFSET 11.766611 -0.000006 -0.000000
                CHANNELS 3 Zrotation Yrotation Xrotation
                End Site
                {
                  OFFSET 0.000000 0.000000 0.000000
                }
              }
              JOINT LeftShoulder
              {
                OFFSET 19.745899 -1.480366 6.000108
                CHANNELS 3 Zrotation Yrotation Xrotation
                JOINT LeftArm
                {
                  OFFSET 11.284111 -0.000018 -0.000015
                  CHANNELS 3 Zrotation Yrotation Xrotation
                  JOINT LeftForeArm
                  {
                    OFFSET 33.000050 -0.000005 0.000028
                    CHANNELS 3 Zrotation Yrotation Xrotation
                    JOINT LeftHand
                    {
                      OFFSET 25.200012 0.000000 0.000002
                      CHANNELS 3 Zrotation Yrotation Xrotation
                      End Site
                      {
                        OFFSET 0.000000 0.000000 0.000000
                      }
                    }
                  }
                }
                JOINT RightShoulder
                {
                  OFFSET 19.746111 -1.480335 -6.000074
                  CHANNELS 3 Zrotation Yrotation Xrotation
                  JOINT RightArm
                  {
                    OFFSET 11.284151 0.000036 0.000001
                    CHANNELS 3 Zrotation Yrotation Xrotation
                    JOINT RightForeArm
                    {
                      OFFSET 33.000092 -0.000035 0.000022
                      CHANNELS 3 Zrotation Yrotation Xrotation
                      JOINT RightHand
                      {
                        OFFSET 25.199768 0.000178 0.000417
                        CHANNELS 3 Zrotation Yrotation Xrotation
                        End Site
                        {
                          OFFSET 0.000000 0.000000 0.000000
                        }
                      }
                    }
                  }
                }
              }
            }
          }
        }
      }
    }
  }
}
MOTION
Frames: 6
Frame Time: 0.03333333
0.146973 0.121958 0.586345 171.576668 5.243315 -77.158562 168.652912 -65.242652 -1.464301 -72.694575 57.965760 -97.540780 161.975874 -27.804282 -14.646891 175.595307 -9.637993 3.468292 -142.632127 -75.003438 28.130731 51.640848 74.110931 127.163046 -176.640020 -21.102626 3.667410 -163.800105 -8.291578 26.905109 -174.796313 52.194793 3.229853 179.429403 -3.828880 -2.136961 -178.864113 3.822075 2.343378 -177.921356 -22.779910 6.241944 177.162139 12.647343 3.060306 -145.291237 6.983086 -7.574114 162.254827 9.306771 46.533197 165.236581 10.486418 4.071871 171.116591 -19.991804 17.801670 133.288898 16.494571 -0.074800 -156.759528 11.475139 -57.219748 172.456513 17.483510 -4.049413 -144.138161 -27.871541 25.438562
0.145084 0.119875 0.584648 170.606692 4.585653 -77.214116 168.652912 -65.242652 -1.464301 -72.694575 57.965760 -97.540780 161.975874 -27.804282 -14.646891 175.595307 -9.637993 3.468292 -142.632127 -75.003438 28.130731 51.640848 74.110931 127.163046 -176.640020 -21.102626 3.667410 -163.800105 -8.291578 26.905109 -174.796313 52.194793 3.229853 179.429403 -3.828880 -2.136961 -178.864113 3.822075 2.343378 -177.921356 -22.779910 6.241944 177.162139 12.647343 3.060306 -145.291237 6.983086 -7.574114 162.254827 9.306771 46.533197 165.236581 10.486418 4.071871 171.116591 -19.991804 17.801670 133.288898 16.494571 -0.074800 -156.759528 11.475139 -57.219748 172.456513 17.483510 -4.049413 -144.138161 -27.871541 25.438562
0.143032 0.118326 0.582879 169.540315 4.053150 -76.946228 171.225236 -64.115063 1.444119 -71.772681 58.679883 -99.068995 162.322098 -26.052636 -15.521353 175.610166 -7.267820 4.254170 -147.972645 -73.331707 23.692747 51.229278 74.345695 127.022853 -173.981287 -21.038650 4.997860 -166.465070 -4.628829 24.200071 -175.372838 50.816319 3.799479 179.185794 -5.421887 -2.000461 -178.823379 3.941299 2.435915 -178.271172 -22.785069 4.779810 177.292466 13.468322 2.578694 -144.916110 7.172936 -8.866630 160.299245 10.117598 50.171735 163.662343 11.090195 4.675195 173.480484 -19.512671 16.273672 132.742329 17.530025 1.458993 -154.248267 11.843297 -61.891989 171.648312 17.351728 -4.785936 -146.329050 -22.957838 21.984043
0.140980 0.116689 0.582044 168.387285 3.504443 -76.389208 171.225236 -64.115063 1.444119 -71.772681 58.679883 -99.068995 162.322098 -26.052636 -15.521353 175.610166 -7.267820 4.254170 -147.972645 -73.331707 23.692747 51.229278 74.345695 127.022853 -173.981287 -21.038650 4.997860 -166.465070 -4.628829 24.200071 -175.372838 50.816319 3.799479 179.185794 -5.421887 -2.000461 -178.823379 3.941299 2.435915 -178.271172 -22.785069 4.779810 177.292466 13.468322 2.578694 -144.916110 7.172936 -8.866630 160.299245 10.117598 50.171735 163.662343 11.090195 4.675195 173.480484 -19.512671 16.273672 132.742329 17.530025 1.458993 -154.248267 11.843297 -61.891989 171.648312 17.351728 -4.785936 -146.329050 -22.957838 21.984043
0.138846 0.114684 0.582000 167.422877 3.004466 -75.939972 171.579645 -62.038193 1.578404 -71.556256 59.071906 -100.402857 162.530830 -25.720992 -16.689891 176.323333 -5.317275 6.178650 -153.081747 -71.294160 18.664852 54.253960 74.332787 123.823964 -171.580684 -20.180853 5.257560 -169.864245 -3.283278 24.820160 -175.325942 49.401325 3.771683 179.545853 -6.972130 -2.116257 -178.673934 4.037428 2.477866 -178.910794 -22.512514 3.589242 177.601870 14.554135 1.375410 -144.993297 6.714500 -9.544854 158.165845 10.793456 53.499066 163.897146 11.963475 4.182842 173.987543 -19.472315 18.789988 132.114255 18.176447 2.150346 -151.966532 12.037502 -64.977685 171.021097 21.534634 -4.681415 -144.890525 -25.791907 23.459847
0.137002 0.112839 0.580715 167.280390 2.812456 -75.834069 171.579645 -62.038193 1.578404 -71.556256 59.071906 -100.402857 162.530830 -25.720992 -16.689891 176.323333 -5.317275 6.178650 -153.081747 -71.294160 18.664852 54.253960 74.332787 123.823964 -171.580684 -20.180853 5.257560 -169.864245 -3.283278 24.820160 -175.325942 49.401325 3.771683 179.545853 -6.972130 -2.116257 -178.673934 4.037428 2.477866 -178.910794 -22.512514 3.589242 177.601870 14.554135 1.375410 -144.993297 6.714500 -9.544854 158.165845 10.793456 53.499066 163.897146 11.963475 4.182842 173.987543 -19.472315 18.789988 132.114255 18.176447 2.150346 -151.966532 12.037502 -64.977685 171.021097 21.534634 -4.681415 -144.890525 -25.791907 23.459847
